<?xml version="1.0" encoding="UTF-8"?>
<svg id="Calque_1" data-name="Calque 1" xmlns="http://www.w3.org/2000/svg" viewBox="0 0 841.89 786.12">
  <defs>
    <style>
      .cls-1 {
        fill: #e1e1e1;
      }

      .cls-2 {
        fill: #022142;
      }

      .cls-3 {
        fill: #0472b2;
      }
    </style>
  </defs>
  <path class="cls-2" d="M197.86,253.68c11.05,4.64,22.3,7.8,35.62,4.84-22.04-12.04-44.78-21.25-58.67-42.7,11.7,6.23,23.89,10.71,36.95,12.6,0,0,0,.18,0,.18l.02-.18c2.32.26,4.64.52,6.95.78,1.36,0,2.73,0,4.1,0l.16-.92c-.78-.35-1.56-.71-2.34-1.06-9.89-5.66-20.12-10.83-29.58-17.13-7.48-4.98-13.44-11.83-16.28-20.77-.29-.9-.36-1.88-.74-3.94,14.17,10.98,28.08,20.4,45.72,21.6.41-.02.81-.03,1.22-.05-.16-.29-.33-.58-.49-.87-4.93-4.91-10.24-9.48-14.69-14.79-8.29-9.89-16.36-20-23.92-30.46-2.45-3.39-2.99-8.15-3.75-12.65,18.88,22.48,39.34,42.05,69.6,47.35-8.17-8.13-16.65-15.75-24.14-24.24-7.62-8.64-12.45-18.92-13.84-31.99,16.22,18.7,31.17,37.06,57.82,39.1-3.11-4.77-6.24-8.96-8.71-13.51-2.48-4.54-4.31-9.44-6.42-14.18.47-.29.94-.58,1.41-.87,3.16,2.84,6.47,5.54,9.46,8.56,15.92,16.06,35.84,25.19,56.28,33.91,24.18,10.32,48.22,21.16,71.53,33.3,21.65,11.28,40.84,26.27,54.51,47.09,11.13,16.95,15.82,35.12,10.21,55.37-1.92,6.95-.58,14.24,4.57,19.6,6.21,6.48,14.3,5.51,21.97,3.16,5.5-1.69,11.05-3.77,15.95-6.73,5.6-3.37,11.34-4.38,17.52-3.7,13.91,1.53,24.77,7.28,26.77,21.86-3.33-1.16-7.08-2.46-11.31-3.93-3.9-12.19-11.67-14.28-25.92-12.57-4.75.57-9.1,5.07-13.49,7.99-21.74,14.46-45.17,24.97-70.79,30.29-4.94,1.03-10.06,1.18-15.39,1.77,7.01-6.69,14.17-12.37,19.93-19.23,19.93-23.71,25.87-50.06,12.71-79.16-6.81-15.04-17.67-27.08-31.18-36.12-12.06-8.08-25.21-14.52-37.93-21.6-.83-.46-2.05-.22-3.08-.31,0-.24,0-.48,0-.21-.22-.28-.05-.07.11.14,5.1,6.88,10.65,13.47,15.2,20.7,10.31,16.37,16.13,34.28,18,53.66,2.19,22.69-.6,44.82-6.65,66.5-4.99,17.87-12,35.07-21.15,51.31-.89,1.57-1.69,3.18-2.74,5.17,8.99,3.74,18.1,3.61,27.01,2.26,32.23-4.89,60.82-19.06,88.26-35.82,3.38-2.06,7.44-3.83,8.61-8.81.42-1.79,3.71-3.05,5.85-4.28,8.41-4.81,16.34-10.73,26.41-11.88.12.13.23.25.35.37-7.67,6.01-15.33,12.01-23,18.02-.75.59-1.5,1.2-2.62,2.09,2.95,1.98,5.54,3.68,8.09,5.43,24.87,17.02,41.98,40.5,51.95,68.3,6.13,17.09,16.43,29.09,30.76,38.79,1.62,1.1,3.16,2.3,5.56,4.07-5.16-1.07-9.29-1.93-14.23-2.95,4,14.67,13.08,24.94,24.36,33.65.22,5.28.44,10.55.66,15.83-3.53,1.69-1.46,3.32.06,4.95-.16,5.53-.33,11.05-.49,16.58-6.71.1-13.43.35-20.14.28-18.43-.18-50.69-15.55-67.08-23.91-.04-11.45,2.04-11.74,5.44-21.38-.03-2.51,1.83-7.22,1.49-9.38-4.92,0,4.73,0,0,0,0,10.58-6.93,20.67-6.93,30.76-3.1-2.76-6.2-5.52-9.29-8.28-.37.13-.74.26-1.11.39.67,3.72,1.35,7.43,2.02,11.15h-.46s-.12.45-.12.45c-8.33-6-13.41-14.51-18.01-23.39-.74-1.43-1.34-2.92-3.16-4.19v9.82c-8.09-7.37-12.32-16.38-15.66-27.2-2.02,2.57-3.46,4.4-5.33,6.78-1.29-4.71-2.43-9.36-3.86-13.92-1.02-3.25-1.87-6.78-3.78-9.48-10.75-15.18-21.77-30.16-32.75-45.18-2.81-3.84-6.76-6.53-11.44-6.03-11.77,1.26-23.46,3.19-36.4,5.02,3.96,5.92,6.79,10.37,9.85,14.66,5.74,8.04.64,12.56-6.39,13.35-1.81.2-3.62.41-4.64.52-3.08,4.38-5.77,8.25-8.53,12.09-.48.66-1.1,1.41-1.83,1.67-8.85,3.26-17.73,6.42-26.59,9.65-3.16,1.15-6.18,3.05-9.43,3.53-5.41.8-10.94.79-16.43,1.02-14.98.63-29.17-3.65-43.47-7.19-6.19-1.53-8.76-3.84-11.53-9.79-15.54-2.53-20.74-6.88-14.34-17.85-1.38-.44-2.66-.85-4.58-1.47.67.59.87.85.94.81,39.65-18.6,78.95-37.71,105.08-75.17-4.39-16.24-9.02-32.23-20.43-45.22-13.21-15.05-29.91-23.23-49.57-25.75-4.45-.57-9.01-.4-13.39-1.24-3.57-.68-6.95-2.35-11.18-3.86,6.37-1.4,11.58-2.54,16.79-3.68.05-.56.09-1.12.14-1.68-11.35-1.96-21.81-5.92-31.46-12.95,2.32-.63,4.24-1.14,6.53-1.76-.48-2.08-.88-3.8-1.17-5.07-5.39-2.26-10.34-4.33-15.29-6.4.09-.37.18-.73.27-1.1,1.84-.15,3.69-.3,5.76-.47-.92-4.38-3.11-7.11-7.05-9.13-9.13-4.69-18.03-9.85-26.94-14.95-1.52-.87-2.65-2.43-3.96-3.67.24-.26.47-.52.71-.78ZM252.26,466.01c0-.07,0-.15,0-.22h-1.09c0,.07,0,.15,0,.22h1.09Z"/>
  <path class="cls-3" d="M522.76,358.85c-30.52,14.39-61.82,25.18-94.9,30.7,27.46-10.42,53.09-24.39,76.83-39.53,2.7,1.91,5.25,5.09,7.2,4.76,2.59-.44,4.71-3.62,7.68-6.19,1.09,3.51,2.03,6.53,3.19,10.25Z"/>
  <path class="cls-2" d="M606.96,551.73c-.07-3.35-.59-12.48-.66-15.83,8.56,5.71,37.74,16.43,49.67,20.26-3.38.78-6.52,2.25-9.53,2.04-8.03-.55-31.48-5.49-39.47-6.47Z"/>
  <path class="cls-2" d="M605.68,573.28c-4.3-2.11,1.38-13.27,1.35-16.6,4.4,3.13,25.77,11.51,31.39,13.38.08.46.16.91.24,1.37-4.82.75-28.34,1.69-32.98,1.85Z"/>
  <path class="cls-3" d="M220.68,227.22c.78.35,1.56.71,2.34,1.06l-.16.92c-1.37,0-2.74,0-4.1,0,.65-.66,1.29-1.32,1.93-1.98Z"/>
  <path class="cls-2" d="M197.15,254.46c-.6-.42-1.2-.84-1.8-1.26.12-.22.25-.44.37-.66.71.38,1.43.76,2.14,1.14-.24.26-.47.52-.71.78Z"/>
  <path class="cls-3" d="M510.93,552.89c.03.37.06.75.09,1.12-.23-.23-.45-.45-.68-.68,0,0,.13-.44.13-.44h.46Z"/>
  <polygon class="cls-3" points="211.79 228.42 211.77 228.6 211.77 228.42 211.79 228.42"/>
  <polygon class="cls-3" points="527.42 367.47 527.47 367.28 527.36 367.41 527.42 367.47"/>
  <path class="cls-2" d="M526.87,367.83c-.48.23-.96.45-1.44.68-.12-.12-.24-.24-.35-.37.59-.12,1.17-.23,1.76-.35,0,0,.03.04.03.04Z"/>
  <path class="cls-3" d="M526.87,367.83s-.04-.05-.03-.04c.13-.21.33-.32.58-.31,0,0-.06-.06-.06-.06-.16.14-.32.28-.49.41Z"/>
  <path class="cls-3" d="M252.26,466.01h-1.09c0-.07,0-.15,0-.22h1.09c0,.07,0,.15,0,.22Z"/>
  <path class="cls-1" d="M220.52,206.06c.16.29.33.58.49.87-.41.01-.81.03-1.22.05.24-.31.49-.61.73-.92Z"/>
  <path class="cls-1" d="M366.28,229.32c-.17-.21-.34-.42-.11-.14,0-.27,0-.03,0,.21,0,0,.12-.07.12-.07Z"/>
</svg>